<svg width="50" height="50" viewBox="0 0 24 24" fill="none" xmlns="http://www.w3.org/2000/svg">
<path d="M6.24026 13.1116C5.66533 11.2294 6.12222 9.09961 7.61091 7.61091C9.7588 5.46303 13.2412 5.46303 15.3891 7.61091C16.3455 8.56738 16.8761 9.78847 16.9807 11.0385" stroke="#cd6b2c" stroke-opacity="0.18" stroke-width="1.5" stroke-linecap="round" stroke-linejoin="round"></path>
<path d="M6.24026 13.1116C5.38283 12.8466 4.41095 13.0535 3.73223 13.7322C2.75592 14.7085 2.75592 16.2915 3.73223 17.2678C4.22039 17.7559 4.86019 18 5.5 18H17.5C18.3957 18 19.2915 17.6583 19.9749 16.9749C21.3417 15.608 21.3417 13.392 19.9749 12.0251C19.159 11.2093 18.0405 10.8804 16.9807 11.0385" stroke="#cd6b2c" stroke-width="1.5" stroke-linecap="round" stroke-linejoin="round"></path>
</svg>