<svg width="50" height="50" viewBox="0 0 24 24" fill="none" xmlns="http://www.w3.org/2000/svg">
<path d="M5 14.25C5 13.1454 5.89543 12.25 7 12.25V12.25C8.10457 12.25 9 13.1454 9 14.25V18.25C9 19.3546 8.10457 20.25 7 20.25V20.25C5.89543 20.25 5 19.3546 5 18.25V14.25Z" stroke="#cd6b2c" stroke-width="1.5" stroke-linecap="round" stroke-linejoin="round"></path>
<path d="M15 14.25C15 13.1454 15.8954 12.25 17 12.25V12.25C18.1046 12.25 19 13.1454 19 14.25V18.25C19 19.3546 18.1046 20.25 17 20.25V20.25C15.8954 20.25 15 19.3546 15 18.25V14.25Z" stroke="#cd6b2c" stroke-width="1.5" stroke-linecap="round" stroke-linejoin="round"></path>
<path d="M5 16.25V16.25C4.21566 16.25 3.48796 15.7847 3.2902 15.0257C3.10081 14.2988 3 13.5362 3 12.75C3 7.77944 7.02944 3.75 12 3.75C16.9706 3.75 21 7.77944 21 12.75C21 13.5362 20.8992 14.2988 20.7098 15.0257C20.512 15.7847 19.7843 16.25 19 16.25V16.25" stroke="#cd6b2c" stroke-opacity="0.18" stroke-width="1.5" stroke-linecap="round" stroke-linejoin="round"></path>
</svg>