<svg width="50" height="50" viewBox="0 0 24 24" fill="none" xmlns="http://www.w3.org/2000/svg">
<path d="M5.4 10C4.22164 9.46438 3.63245 9.19657 3.39766 8.86246C3.034 8.34499 3.034 7.65501 3.39766 7.13754C3.63245 6.80343 4.22164 6.53562 5.4 6L10.8827 3.50785C11.3707 3.28607 11.6146 3.17517 11.8722 3.15315C11.9572 3.14587 12.0428 3.14587 12.1278 3.15315C12.3854 3.17517 12.6293 3.28607 13.1173 3.50785L18.6 6C19.7784 6.53562 20.3675 6.80343 20.6023 7.13754C20.966 7.65501 20.966 8.34499 20.6023 8.86246C20.3675 9.19657 19.7784 9.46438 18.6 10V10L13.1173 12.4922C12.6293 12.7139 12.3854 12.8248 12.1278 12.8469C12.0428 12.8541 11.9572 12.8541 11.8722 12.8469C11.6146 12.8248 11.3707 12.7139 10.8827 12.4922L5.4 10V10Z" stroke="#cd6b2c" stroke-opacity="0.18" stroke-width="1.5" stroke-linejoin="round"></path>
<path d="M5.4 14V14C4.22164 14.5356 3.63245 14.8034 3.39766 15.1375C3.034 15.655 3.034 16.345 3.39766 16.8625C3.63245 17.1966 4.22164 17.4644 5.4 18L10.8827 20.4922C11.3707 20.7139 11.6146 20.8248 11.8722 20.8469C11.9572 20.8541 12.0428 20.8541 12.1278 20.8469C12.3854 20.8248 12.6293 20.7139 13.1173 20.4922L18.6 18C19.7784 17.4644 20.3675 17.1966 20.6023 16.8625C20.966 16.345 20.966 15.655 20.6023 15.1375C20.3675 14.8034 19.7784 14.5356 18.6 14V14M5.4 14L4.64657 13.6575C4.10641 13.412 3.83633 13.2892 3.69193 13.1745C2.93591 12.574 2.93591 11.426 3.69193 10.8255C3.83633 10.7108 4.10641 10.588 4.64657 10.3425V10.3425C4.77661 10.2834 4.84162 10.2538 4.90627 10.2313C5.22599 10.1198 5.57401 10.1198 5.89373 10.2313C5.95838 10.2538 6.02339 10.2834 6.15342 10.3425L10.8827 12.4922C11.3707 12.7139 11.6146 12.8248 11.8722 12.8469C11.9572 12.8541 12.0428 12.8541 12.1278 12.8469C12.3854 12.8248 12.6293 12.7139 13.1173 12.4922L17.8466 10.3425C17.9766 10.2834 18.0416 10.2538 18.1063 10.2313C18.426 10.1198 18.774 10.1198 19.0937 10.2313C19.1584 10.2538 19.2234 10.2834 19.3534 10.3425V10.3425C19.8936 10.588 20.1637 10.7108 20.3081 10.8255C21.0641 11.426 21.0641 12.574 20.3081 13.1745C20.1637 13.2892 19.8936 13.412 19.3534 13.6575L18.6 14M5.4 14L10.8827 16.4922C11.3707 16.7139 11.6146 16.8248 11.8722 16.8469C11.9572 16.8541 12.0428 16.8541 12.1278 16.8469C12.3854 16.8248 12.6293 16.7139 13.1173 16.4922L18.6 14" stroke="#cd6b2c" stroke-width="1.5" stroke-linejoin="round"></path>
</svg>