<svg width="50" height="50" viewBox="0 0 24 24" fill="none" xmlns="http://www.w3.org/2000/svg">
<path d="M17 10H17.5C19.433 10 21 11.567 21 13.5V13.5" stroke="#cd6b2c" stroke-opacity="0.18" stroke-width="1.5" stroke-linecap="round" stroke-linejoin="round"></path>
<path d="M15 10V10C15 10 15 10 15 10C15 12.2091 13.2091 14 11 14C11 14 11 14 11 14H9M15 10V10C15 7.79086 13.2091 6 11 6H7C4.79086 6 3 7.79086 3 10V10C3 12.2091 4.79086 14 7 14H9M15 10H17M9 14V14C9 16.2091 10.7909 18 13 18H16.5C16.9643 18 17.1965 18 17.3921 17.9807C19.2912 17.7937 20.7937 16.2912 20.9807 14.3921C21 14.1965 21 13.9643 21 13.5V13.5" stroke="#cd6b2c" stroke-width="1.5" stroke-linecap="round" stroke-linejoin="round"></path>
</svg>