<svg width="50" height="50" viewBox="0 0 24 24" fill="none" xmlns="http://www.w3.org/2000/svg">
<path d="M15.5366 3.72122C14.8522 3.42847 14.51 3.28209 14.1237 3.43898C14.0161 3.48266 13.8786 3.57341 13.7962 3.65512C13.5 3.94857 13.5 4.38282 13.5 5.25134V10.4998H18.7484C19.6169 10.4998 20.0512 10.4998 20.3446 10.2036C20.4264 10.1211 20.5171 9.98363 20.5608 9.87607C20.7177 9.4898 20.5713 9.1476 20.2785 8.4632C19.3688 6.33637 17.6634 4.63098 15.5366 3.72122Z" stroke="#cd6b2c" stroke-opacity="0.18" stroke-width="1.5" stroke-linejoin="round"></path>
<path d="M3 11.9998C3 16.9703 7.02944 20.9998 12 20.9998C15.9348 20.9998 19.2798 18.4747 20.503 14.9565C20.7364 14.2853 20.8531 13.9497 20.687 13.5851C20.6404 13.4829 20.5487 13.354 20.4675 13.2764C20.1776 12.9998 19.7635 12.9998 18.9351 12.9998H12.8C12.0501 12.9998 11.6751 12.9998 11.4122 12.8088C11.3273 12.7471 11.2527 12.6724 11.191 12.5875C11 12.3247 11 11.9497 11 11.1998V5.06463C11 4.23629 11 3.82212 10.7233 3.5323C10.6458 3.45105 10.5169 3.35937 10.4146 3.3128C10.05 3.14667 9.71445 3.26335 9.04325 3.49671C5.5251 4.71993 3 8.06496 3 11.9998Z" stroke="#cd6b2c" stroke-width="1.5" stroke-linejoin="round"></path>
</svg>