<svg width="50" height="50" viewBox="0 0 24 24" fill="none" xmlns="http://www.w3.org/2000/svg">
<path d="M13 8.00049L15.0687 9.37977C16.6361 10.4248 17.4198 10.9473 17.5615 11.6591C17.6064 11.8847 17.6064 12.117 17.5614 12.3426C17.4197 13.0544 16.6359 13.5768 15.0684 14.6217L13 16.0005" stroke="#cd6b2c" stroke-opacity="0.18" stroke-width="1.5" stroke-linecap="round" stroke-linejoin="round"></path>
<path d="M13 8.00044L11.8974 7.26532C9.99908 5.99961 9.04991 5.36675 8.27397 5.58609C8.03066 5.65487 7.80514 5.77556 7.61294 5.93985C7 6.46377 7 7.60457 7 9.88619L7 14.1145C7 16.3959 7 17.5366 7.61288 18.0605C7.80507 18.2248 8.03057 18.3455 8.27387 18.4143C9.04975 18.6336 9.99889 18.001 11.8972 16.7356L13 16.0004" stroke="#cd6b2c" stroke-width="1.5" stroke-linecap="round" stroke-linejoin="round"></path>
</svg>